<?xml version="1.0" encoding="iso-8859-1"?>
<!-- Generator: Adobe Illustrator 23.0.2, SVG Export Plug-In . SVG Version: 6.00 Build 0)  -->
<svg version="1.1" id="illustration" xmlns="http://www.w3.org/2000/svg" xmlns:xlink="http://www.w3.org/1999/xlink" x="0px"
	 y="0px" viewBox="0 0 1080 720" style="enable-background:new 0 0 1080 720;" xml:space="preserve">
<title>waiting</title>
<g id="sand_clock">
	
		<linearGradient id="top_1_" gradientUnits="userSpaceOnUse" x1="646.8689" y1="464.4726" x2="634.1442" y2="90.686" gradientTransform="matrix(1 0 0 -1 0 722)">
		<stop  offset="0.0898" style="stop-color:#EEEEEE"/>
		<stop  offset="0.8178" style="stop-color:#D6D7D8"/>
	</linearGradient>
	<path id="top" style="fill:url(#top_1_);" d="M758.123,271.566c-1.411,34.46-18.07,88.976-43.517,128.836
		c-18.564,29.095-41.801,50.382-67.204,50.382c-22.626,0-43.832-16.902-61.606-41.163c-29.527-40.274-49.619-100.855-51.137-138.055
		L758.123,271.566z"/>
	
		<linearGradient id="bottom_1_" gradientUnits="userSpaceOnUse" x1="586.8138" y1="231.7067" x2="744.2772" y2="-76.8579" gradientTransform="matrix(1 0 0 -1 0 722)">
		<stop  offset="0.0898" style="stop-color:#EEEEEE"/>
		<stop  offset="0.8178" style="stop-color:#D6D7D8"/>
	</linearGradient>
	<path id="bottom" style="fill:url(#bottom_1_);" d="M534.655,630.044c2.44-59.609,52.539-179.214,112.748-179.214
		s108.285,119.604,110.725,179.214H534.655z"/>
	
		<linearGradient id="top-2_1_" gradientUnits="userSpaceOnUse" x1="671.8755" y1="142.0443" x2="651.9448" y2="302.9136" gradientTransform="matrix(1 0 0 -1 0 722)">
		<stop  offset="0.0898" style="stop-color:#EEEEEE"/>
		<stop  offset="0.8178" style="stop-color:#D6D7D8"/>
	</linearGradient>
	<path id="top-2" style="fill:url(#top-2_1_);" d="M714.606,400.402c-18.564,29.095-41.801,50.382-67.204,50.382
		c-22.626,0-43.832-16.902-61.606-41.163C610.884,407.303,666.622,403.52,714.606,400.402z"/>
	
		<linearGradient id="bottom-2_1_" gradientUnits="userSpaceOnUse" x1="690.7941" y1="-266.4404" x2="637.8807" y2="160.6465" gradientTransform="matrix(1 0 0 -1 0 722)">
		<stop  offset="0.0898" style="stop-color:#EEEEEE"/>
		<stop  offset="0.8178" style="stop-color:#D6D7D8"/>
	</linearGradient>
	<path id="bottom-2" style="fill:url(#bottom-2_1_);" d="M755.032,626.244l0.725-0.013l-8.941-9.431
		c-1.827-1.996-3.653-3.921-5.476-5.776l-92.41-97.474h-3.658l-92.579,97.497c-6.469,5.882-12.498,12.231-18.038,18.996h223.472
		C757.095,628.752,756.064,627.49,755.032,626.244z"/>
	
		<linearGradient id="sand_1_" gradientUnits="userSpaceOnUse" x1="646.0119" y1="255.9766" x2="646.7764" y2="222.3389" gradientTransform="matrix(1 0 0 -1 0 722)">
		<stop  offset="0.0898" style="stop-color:#EEEEEE"/>
		<stop  offset="0.8178" style="stop-color:#D6D7D8"/>
	</linearGradient>
	<rect id="sand" x="645" y="451" style="fill:url(#sand_1_);" width="4" height="117"/>
</g>
<g id="man">
	
		<linearGradient id="R_shoe_1_" gradientUnits="userSpaceOnUse" x1="536.42" y1="59.7567" x2="437.4619" y2="121.7546" gradientTransform="matrix(1 0 0 -1 0 722)">
		<stop  offset="0.1291" style="stop-color:#428DFC"/>
		<stop  offset="0.9987" style="stop-color:#1D72D8"/>
	</linearGradient>
	<path id="R_shoe" style="fill:url(#R_shoe_1_);" d="M499.635,592.916l-30.324,0c0,0-15.804,14.899-32.755,22.164
		s-22.036,17.073-22.036,17.073l99.172-0.003l-14.048-39.186"/>
	<path id="L_shoe" style="fill:#428DFC;" d="M437.957,592.916l-31.926-0.003c0,0-13.733,14.995-30.685,22.26
		s-22.036,17.073-22.036,17.073l99.172-0.003L437.957,592.916"/>
	
		<linearGradient id="R_hand_1_" gradientUnits="userSpaceOnUse" x1="0.9171" y1="505.5997" x2="7.8317" y2="469.1409" gradientTransform="matrix(-1 0 0 -1 401.6862 722)">
		<stop  offset="0" style="stop-color:#FFBEB6"/>
		<stop  offset="1" style="stop-color:#F2A19C"/>
	</linearGradient>
	<path id="R_hand" style="fill:url(#R_hand_1_);" d="M401.397,270.447c0,0-9.283-4.816-10.31-10.014
		c-0.869-4.399-9.196-8.893-9.196-8.893l6.939,13.845l3.657,7.755C392.487,273.14,403.745,287.802,401.397,270.447z"/>
	<path id="phone" style="fill:#23286B;" d="M371.408,269.354l17.629-4.016c1.044-0.238,1.698-1.277,1.46-2.321
		c-0.062-0.27-0.18-0.524-0.348-0.744l-23.229-30.497c-0.469-0.615-1.258-0.893-2.009-0.707l-17.733,4.399
		c-1.039,0.258-1.673,1.309-1.415,2.349c0.065,0.262,0.184,0.507,0.349,0.721l23.332,30.115
		C369.906,269.247,370.672,269.521,371.408,269.354z"/>
	
		<linearGradient id="L_hand_1_" gradientUnits="userSpaceOnUse" x1="28.3462" y1="458.9494" x2="7.8321" y2="438.6984" gradientTransform="matrix(-0.9999 -0.0102 0.0102 -0.9999 397.9746 724.8283)">
		<stop  offset="0" style="stop-color:#FFBEB6"/>
		<stop  offset="1" style="stop-color:#F2A19C"/>
	</linearGradient>
	<path id="L_hand" style="fill:url(#L_hand_1_);" d="M396.58,272.237c0,0-5.59-3.166-7.751-6.851c0,0-3.312,0.768-5.377,1.103
		c0,0-0.27-5.255-10.641-6.142c-9.352-0.801-8.119-2.833-13.906-4.725s-8.146-0.185-8.472,1.747c0,0,6.089,2.201,7.492,4.456
		s3.078,7.772,8.153,9.556s22.932,3.972,26.581,15.722l0,0L396.58,272.237"/>
	
		<linearGradient id="R_sleeve_1_" gradientUnits="userSpaceOnUse" x1="-56.7769" y1="497.278" x2="-37.2293" y2="420.9199" gradientTransform="matrix(-1 0 0 -1 401.6862 722)">
		<stop  offset="0" style="stop-color:#23286B"/>
		<stop  offset="0.361" style="stop-color:#1E2361"/>
		<stop  offset="1" style="stop-color:#151A4F"/>
	</linearGradient>
	<path id="R_sleeve" style="fill:url(#R_sleeve_1_);" d="M393.405,302.457c0,0,3.573,7.397,16.07,7.909s15.307,2.549,24.491,8.422
		s26.528,8.16,43.884-18.88c15.928-24.84,21.321-52.251,18.521-66.839c-1.308-8.746-1.684-11.911-2.998-14.659
		c-0.179-0.374-5.61,3.267-7.038,4.223c-2.2,1.472-8.834,6.683-10.468,6.781c-2.952,9.762-7.971,50.668-30.84,50.719
		c-24.038,0.054-42.699-13.389-42.699-13.389L393.405,302.457z"/>
	
		<linearGradient id="R_trousers_1_" gradientUnits="userSpaceOnUse" x1="241.09" y1="369.6631" x2="541.5609" y2="230.3143" gradientTransform="matrix(1 0 0 -1 0 722)">
		<stop  offset="0" style="stop-color:#A1C3FC"/>
		<stop  offset="0.6955" style="stop-color:#81AEF2"/>
		<stop  offset="1" style="stop-color:#78A9EF"/>
	</linearGradient>
	<path id="R_trousers" style="fill:url(#R_trousers_1_);" d="M465.117,347.223c0,0-34.267,71.645-42.043,102.931
		c-6.605,26.573,33.746,142.762,33.746,142.762h42.816c0,0,7.556-17.72-0.504-34.428s-3.526-20.758-4.03-33.922
		s-1.511-33.415-11.586-55.692s21.156-46.579,29.216-61.768s20.149-46.073,14.104-62.78c0,0-30.144,1.606-32.159,2.112
		S465.117,347.222,465.117,347.223"/>
	<path id="L_trousers" style="fill:#A1C3FC;" d="M536.879,329.758c-0.6,0.325-2.529,1.284-4.917,2.459
		c-8.422,4.147-17.886,5.699-27.191,4.459l-35.585-4.752c-1.114,15.97-17.385,63.021-17.385,63.021
		c-7.123,18.001-15.441,51.865-23.168,77.86c-7.95,26.743-25.784,107.814-28.757,120.111h38.079
		c16.351-13.683,20.523-30.762,29.584-58.091c11.093-33.454,13.293-21.089,20.704-53.841c7.408-32.741,6.417-26.058,29.773-69.151
		C540.773,369.844,537.677,331.409,536.879,329.758z"/>
	
		<linearGradient id="_1_1_" gradientUnits="userSpaceOnUse" x1="302.3775" y1="528.5754" x2="445.9303" y2="383.5116" gradientTransform="matrix(1 0 0 -1 0 722)">
		<stop  offset="0.0898" style="stop-color:#EEEEEE"/>
		<stop  offset="0.8178" style="stop-color:#D6D7D8"/>
	</linearGradient>
	<path id="_1" style="fill:url(#_1_1_);" d="M318.95,188.375l-29.691,7.884c-0.691,0.183-1.102,0.892-0.918,1.582
		c0.043,0.163,0.118,0.315,0.219,0.45l12.568,16.578c0.317,0.418,0.856,0.604,1.363,0.469l23.452-6.228
		c0.242-0.064,0.498-0.057,0.737,0.022l12.02,3.957l-18.387-24.245C319.996,188.425,319.458,188.24,318.95,188.375z"/>
	
		<linearGradient id="_2_1_" gradientUnits="userSpaceOnUse" x1="323.3907" y1="549.3698" x2="466.9435" y2="404.3059" gradientTransform="matrix(1 0 0 -1 0 722)">
		<stop  offset="0.0898" style="stop-color:#EEEEEE"/>
		<stop  offset="0.8178" style="stop-color:#D6D7D8"/>
	</linearGradient>
	<path id="_2" style="fill:url(#_2_1_);" d="M356.617,217.072l21.108-5.605c1.076-0.286,1.717-1.39,1.431-2.466
		c-0.067-0.254-0.183-0.491-0.342-0.7l-11.625-15.334c-0.494-0.652-1.333-0.94-2.124-0.73l-28.182,7.484
		c-1.076,0.286-1.717,1.39-1.431,2.466c0.067,0.254,0.183,0.491,0.342,0.7l12.442,16.412l0.06-0.016l8.164,10.715l-1.327-10.729
		C355.01,218.268,355.643,217.33,356.617,217.072z"/>
	<path id="texture" style="opacity:0.86;fill:#FFFFFF;enable-background:new    ;" d="M510.742,359.722
		c-0.128-0.051-0.273,0.012-0.324,0.141c0,0,0,0,0,0c-0.056,0.12-0.003,0.263,0.117,0.318c0.003,0.001,0.005,0.002,0.008,0.003
		c0.128,0.051,0.273-0.012,0.324-0.141c0,0,0,0,0-0.001C510.916,359.921,510.862,359.78,510.742,359.722z M505.206,357.451
		c-0.128-0.05-0.273,0.013-0.324,0.141s0.013,0.273,0.141,0.324c0.128,0.05,0.273-0.013,0.324-0.141
		C505.393,357.647,505.331,357.505,505.206,357.451z M499.686,355.182c-0.128-0.05-0.273,0.013-0.324,0.141s0.013,0.273,0.141,0.324
		c0.12,0.048,0.255-0.011,0.303-0.13c0.002-0.004,0.003-0.009,0.005-0.013c0.059-0.112,0.016-0.25-0.095-0.309
		C499.706,355.19,499.696,355.186,499.686,355.182L499.686,355.182z M494.149,352.911c-0.132-0.042-0.273,0.031-0.315,0.163
		c-0.038,0.12,0.018,0.249,0.132,0.302c0.128,0.05,0.273-0.013,0.324-0.141S494.278,352.961,494.149,352.911z M488.629,350.642
		c-0.128-0.05-0.273,0.013-0.324,0.141c-0.05,0.128,0.013,0.273,0.141,0.324c0.128,0.05,0.273-0.013,0.324-0.141
		C488.821,350.838,488.758,350.693,488.629,350.642C488.629,350.642,488.629,350.642,488.629,350.642L488.629,350.642z
		 M493.137,377.697c-0.053-0.124-0.196-0.182-0.32-0.129s-0.182,0.196-0.129,0.32s0.196,0.182,0.32,0.129c0,0,0,0,0,0
		C493.132,377.964,493.19,377.821,493.137,377.697C493.137,377.697,493.137,377.697,493.137,377.697L493.137,377.697z
		 M490.839,372.187c-0.043-0.12-0.175-0.183-0.295-0.14c-0.009,0.003-0.017,0.007-0.026,0.011c-0.127,0.048-0.192,0.19-0.145,0.318
		c0.061,0.124,0.208,0.181,0.337,0.131C490.834,372.455,490.892,372.311,490.839,372.187
		C490.839,372.187,490.839,372.187,490.839,372.187L490.839,372.187z M488.541,366.677c-0.058-0.127-0.202-0.191-0.335-0.148
		c-0.124,0.061-0.181,0.208-0.131,0.337c0.053,0.124,0.196,0.182,0.32,0.129c0,0,0,0,0,0
		C488.522,366.947,488.587,366.805,488.541,366.677L488.541,366.677z M486.228,361.149c-0.053-0.124-0.196-0.182-0.32-0.129
		c0,0,0,0,0,0c-0.126,0.06-0.183,0.208-0.131,0.337c0.053,0.124,0.196,0.182,0.32,0.129c0,0,0,0,0,0
		C486.223,361.426,486.28,361.278,486.228,361.149L486.228,361.149z M467.848,377.629c-0.124-0.045-0.262,0.019-0.307,0.143
		c-0.059,0.112-0.016,0.25,0.095,0.309c0.009,0.005,0.019,0.009,0.029,0.013c0.128,0.05,0.273-0.013,0.324-0.141
		S467.977,377.68,467.848,377.629L467.848,377.629z M501.597,368.011c-0.095-0.093-0.246-0.091-0.339,0.004
		c-0.093,0.095-0.091,0.246,0.004,0.339c0.095,0.093,0.246,0.091,0.339-0.004c0,0,0,0,0,0c0.093-0.085,0.099-0.229,0.014-0.322
		C501.609,368.022,501.603,368.016,501.597,368.011L501.597,368.011z M497.362,363.789c-0.095-0.091-0.246-0.09-0.339,0.004
		c-0.037,0.039-0.062,0.089-0.07,0.142c-0.013,0.079,0.014,0.158,0.072,0.213c0.011,0.015,0.029,0.023,0.047,0.023l0.017,0.002
		c0.087,0.058,0.203,0.046,0.275-0.03c0.098-0.093,0.101-0.248,0.008-0.346C497.368,363.795,497.365,363.792,497.362,363.789
		L497.362,363.789z M493.124,359.584c-0.095-0.092-0.246-0.091-0.339,0.004s-0.091,0.246,0.004,0.339
		c0.09,0.096,0.24,0.102,0.336,0.013c0.098-0.093,0.101-0.248,0.008-0.346C493.13,359.59,493.127,359.587,493.124,359.584
		L493.124,359.584z M488.889,355.362c-0.095-0.091-0.246-0.09-0.339,0.004c-0.098,0.093-0.101,0.248-0.008,0.346
		c0.003,0.003,0.006,0.006,0.009,0.009c0.085,0.093,0.229,0.099,0.322,0.014c0.006-0.006,0.012-0.011,0.017-0.017
		c0.098-0.095,0.1-0.251,0.005-0.349C488.893,355.366,488.891,355.364,488.889,355.362L488.889,355.362z M480.41,376.916
		c-0.14,0-0.253,0.114-0.253,0.254c0,0.139,0.112,0.252,0.251,0.253c0.14,0,0.253-0.114,0.253-0.254
		C480.661,377.03,480.549,376.917,480.41,376.916z M480.391,370.944c-0.139,0.003-0.251,0.114-0.255,0.252
		c-0.001,0.13,0.103,0.237,0.234,0.239c0.007,0,0.014,0,0.021-0.001c0.135,0.005,0.248-0.101,0.252-0.235c0,0,0,0,0,0
		C480.636,371.062,480.527,370.953,480.391,370.944L480.391,370.944z M525.513,378.846c-0.189-0.172-0.482-0.159-0.654,0.031
		c-0.004,0.004-0.008,0.008-0.011,0.013c-0.167,0.19-0.148,0.48,0.043,0.646c0.001,0.001,0.002,0.002,0.003,0.003
		c0.189,0.172,0.482,0.159,0.654-0.031c0.004-0.004,0.008-0.008,0.011-0.013c0.167-0.19,0.148-0.479-0.042-0.646
		C525.516,378.848,525.514,378.847,525.513,378.846L525.513,378.846z M516.955,371.405c-0.19-0.167-0.48-0.148-0.646,0.043
		c-0.001,0.001-0.002,0.002-0.003,0.003c-0.172,0.196-0.153,0.494,0.043,0.665c0.196,0.172,0.494,0.153,0.665-0.043
		C517.176,371.87,517.15,371.576,516.955,371.405L516.955,371.405z M508.411,363.982c-0.196-0.172-0.494-0.152-0.666,0.043
		c-0.172,0.196-0.152,0.494,0.043,0.666s0.494,0.152,0.665-0.043c0,0,0,0,0,0c0.172-0.189,0.159-0.482-0.03-0.654
		C508.42,363.99,508.415,363.986,508.411,363.982L508.411,363.982z M499.867,356.56c-0.189-0.172-0.482-0.159-0.654,0.031
		c-0.004,0.004-0.007,0.008-0.011,0.013c-0.107,0.113-0.148,0.274-0.109,0.425l0.017,0.002c0.018,0.092,0.066,0.176,0.136,0.239
		c0.044,0.04,0.1,0.066,0.159,0.073c0.236,0.093,0.504-0.023,0.597-0.26C500.073,356.897,500.019,356.687,499.867,356.56
		L499.867,356.56z M491.066,407.443c-0.258,0.018-0.454,0.239-0.441,0.497c0.013,0.249,0.225,0.439,0.474,0.426
		c0.008,0,0.017-0.001,0.025-0.002c0.258-0.018,0.454-0.239,0.441-0.497C491.545,407.612,491.322,407.422,491.066,407.443
		C491.067,407.443,491.067,407.443,491.066,407.443L491.066,407.443z M490.264,396.137c-0.255,0.021-0.445,0.244-0.424,0.499
		c0,0,0,0,0,0.001c0.016,0.259,0.238,0.456,0.497,0.441c0.259-0.016,0.456-0.238,0.441-0.497l0,0
		C490.747,396.321,490.524,396.129,490.264,396.137L490.264,396.137z M489.477,384.833c-0.259,0.03-0.452,0.253-0.443,0.514
		c0.013,0.249,0.225,0.439,0.474,0.426c0.008,0,0.017-0.001,0.025-0.002c0.255-0.011,0.452-0.226,0.442-0.48
		c0-0.006-0.001-0.011-0.001-0.017C489.957,385.016,489.736,384.82,489.477,384.833L489.477,384.833z M488.672,373.544
		c-0.255,0.021-0.445,0.244-0.424,0.499c0,0,0,0,0,0.001c0.018,0.259,0.242,0.454,0.5,0.437c0.259-0.018,0.454-0.242,0.437-0.5
		c-0.018-0.259-0.242-0.455-0.5-0.437C488.681,373.544,488.677,373.544,488.672,373.544z M487.886,362.241
		c-0.259,0.025-0.449,0.256-0.423,0.515c0.025,0.252,0.244,0.439,0.496,0.425c0.249-0.013,0.439-0.225,0.426-0.474
		c0-0.008-0.001-0.017-0.002-0.025C488.365,362.424,488.144,362.228,487.886,362.241L487.886,362.241z M530.438,359.387
		c-0.245-0.083-0.511,0.046-0.598,0.289c-0.085,0.245,0.044,0.513,0.289,0.598c0.245,0.085,0.513-0.044,0.598-0.289
		C530.813,359.741,530.684,359.473,530.438,359.387L530.438,359.387z M519.689,355.803c-0.233-0.084-0.49,0.037-0.574,0.27
		c-0.003,0.007-0.005,0.014-0.007,0.021c-0.089,0.238,0.033,0.503,0.271,0.592c0.238,0.089,0.503-0.033,0.592-0.271
		c0.004-0.01,0.007-0.021,0.01-0.031c0.084-0.233-0.037-0.491-0.271-0.574C519.703,355.807,519.696,355.805,519.689,355.803z
		 M513.309,396.164c-0.111-0.239-0.394-0.342-0.633-0.231c-0.239,0.111-0.342,0.394-0.231,0.633
		c0.111,0.239,0.394,0.342,0.633,0.231c0.003-0.001,0.006-0.003,0.009-0.004C513.319,396.678,513.417,396.399,513.309,396.164
		L513.309,396.164z M508.252,386.028c-0.111-0.239-0.394-0.342-0.633-0.231s-0.342,0.394-0.231,0.633s0.394,0.342,0.633,0.231
		c0.003-0.001,0.006-0.003,0.009-0.004C508.262,386.542,508.36,386.264,508.252,386.028L508.252,386.028z M503.195,375.893
		c-0.127-0.229-0.411-0.32-0.648-0.208c-0.233,0.123-0.322,0.411-0.199,0.643c0.118,0.224,0.392,0.317,0.622,0.21
		C503.202,376.415,503.301,376.133,503.195,375.893L503.195,375.893z M498.119,365.771c-0.107-0.233-0.383-0.335-0.616-0.228
		c-0.233,0.107-0.335,0.383-0.228,0.616c0.003,0.007,0.007,0.014,0.01,0.02c0.112,0.229,0.389,0.324,0.618,0.212
		c0.004-0.002,0.008-0.004,0.013-0.006c0.222-0.102,0.319-0.366,0.217-0.588C498.128,365.789,498.124,365.78,498.119,365.771
		L498.119,365.771z M493.062,355.635c-0.119-0.228-0.4-0.316-0.627-0.197c-0.219,0.115-0.31,0.381-0.207,0.606
		c0.116,0.231,0.393,0.329,0.629,0.222c0.23-0.114,0.324-0.393,0.21-0.623C493.065,355.641,493.063,355.638,493.062,355.635
		L493.062,355.635z M469.817,399.327c-0.234-0.083-0.49,0.04-0.573,0.274c-0.004,0.011-0.008,0.023-0.011,0.035
		c-0.081,0.239,0.047,0.499,0.286,0.58c0.002,0.001,0.003,0.001,0.005,0.002c0.245,0.083,0.511-0.046,0.598-0.289
		C470.192,399.679,470.059,399.418,469.817,399.327z M473.416,388.597c-0.242-0.087-0.508,0.039-0.595,0.281
		c-0.001,0.003-0.002,0.005-0.003,0.008c-0.083,0.245,0.046,0.511,0.289,0.598c0.249,0.069,0.509-0.064,0.6-0.306
		c0.081-0.239-0.047-0.499-0.286-0.58C473.42,388.598,473.418,388.598,473.416,388.597z M477.001,377.848
		c-0.245-0.083-0.511,0.046-0.598,0.289c-0.086,0.242,0.041,0.507,0.283,0.593c0.007,0.003,0.015,0.005,0.023,0.007
		c0.233,0.084,0.491-0.037,0.574-0.27c0.003-0.007,0.005-0.014,0.007-0.021C477.373,378.201,477.244,377.935,477.001,377.848
		L477.001,377.848z M480.585,367.098c-0.246-0.073-0.505,0.064-0.584,0.308c-0.084,0.233,0.037,0.491,0.27,0.574
		c0.007,0.003,0.014,0.005,0.021,0.007c0.245,0.083,0.511-0.046,0.598-0.289C480.967,367.449,480.832,367.184,480.585,367.098
		L480.585,367.098z M537.216,354.035c-0.051,0.046-0.089,0.105-0.108,0.171c-0.02,0.111,0.007,0.225,0.075,0.315
		C537.189,354.352,537.196,354.184,537.216,354.035L537.216,354.035z M523.02,390.998c-0.121-0.195-0.378-0.255-0.573-0.134
		c-0.195,0.121-0.255,0.378-0.134,0.573c0.001,0.002,0.002,0.003,0.003,0.005c0.124,0.193,0.381,0.25,0.575,0.126
		C523.082,391.445,523.14,391.191,523.02,390.998z M517.662,382.427c-0.122-0.194-0.379-0.253-0.574-0.13
		c-0.194,0.122-0.253,0.379-0.13,0.574s0.379,0.253,0.574,0.13l0,0c0.193-0.116,0.255-0.366,0.14-0.559
		C517.668,382.437,517.665,382.432,517.662,382.427z M512.306,373.839c-0.032-0.072-0.091-0.129-0.164-0.158l-0.016-0.002
		c-0.128-0.056-0.275-0.045-0.393,0.03c-0.199,0.125-0.26,0.387-0.135,0.587c0.001,0.001,0.002,0.003,0.002,0.004
		c0.124,0.192,0.379,0.25,0.574,0.13c0.091-0.053,0.153-0.143,0.169-0.247C512.39,374.069,512.376,373.94,512.306,373.839
		L512.306,373.839z M506.948,365.268c-0.124-0.193-0.379-0.251-0.574-0.13c-0.199,0.122-0.26,0.383-0.138,0.581
		c0.122,0.198,0.381,0.26,0.579,0.139c0.199-0.125,0.26-0.388,0.135-0.587C506.95,365.27,506.949,365.269,506.948,365.268z
		 M501.606,356.699c-0.131-0.193-0.39-0.251-0.59-0.132c-0.196,0.128-0.251,0.389-0.123,0.585c0.122,0.188,0.37,0.247,0.564,0.136
		C501.654,357.161,501.72,356.904,501.606,356.699L501.606,356.699z M480.798,397.82c-0.224-0.052-0.447,0.088-0.499,0.312
		c-0.001,0.003-0.001,0.005-0.002,0.008c-0.058,0.215,0.07,0.437,0.285,0.494c0.006,0.002,0.012,0.003,0.018,0.004
		c0.229,0.048,0.456-0.091,0.517-0.317C481.158,398.096,481.019,397.878,480.798,397.82z M483.074,387.972
		c-0.224-0.052-0.448,0.088-0.499,0.312c-0.001,0.003-0.001,0.005-0.002,0.008c-0.058,0.215,0.07,0.437,0.286,0.494
		c0.006,0.002,0.012,0.003,0.017,0.004c0.221,0.053,0.443-0.083,0.498-0.303C483.43,388.262,483.297,388.034,483.074,387.972
		L483.074,387.972z M485.35,378.124c-0.224-0.052-0.448,0.088-0.499,0.312c-0.001,0.002-0.001,0.005-0.002,0.007
		c-0.062,0.208,0.057,0.427,0.265,0.489c0.013,0.004,0.025,0.007,0.038,0.009c0.224,0.052,0.447-0.088,0.499-0.312
		c0.001-0.003,0.001-0.005,0.002-0.008C485.701,378.402,485.568,378.183,485.35,378.124L485.35,378.124z M487.609,368.273
		c-0.225-0.041-0.443,0.098-0.501,0.32c-0.049,0.227,0.096,0.451,0.324,0.5c0.219,0.047,0.436-0.086,0.495-0.302
		C487.975,368.562,487.836,368.335,487.609,368.273L487.609,368.273z M489.902,358.428c-0.229-0.048-0.456,0.091-0.517,0.317
		c-0.051,0.226,0.092,0.451,0.318,0.502c0.226,0.051,0.451-0.092,0.502-0.318c0-0.001,0-0.002,0.001-0.003
		C490.246,358.707,490.116,358.492,489.902,358.428L489.902,358.428z M527.029,366.796c-0.186-0.135-0.446-0.094-0.581,0.092
		c-0.003,0.004-0.006,0.008-0.009,0.012c-0.134,0.173-0.103,0.421,0.069,0.555c0.007,0.005,0.014,0.01,0.021,0.015
		c0.179,0.139,0.437,0.107,0.576-0.073c0.004-0.005,0.008-0.01,0.011-0.015C527.249,367.195,527.211,366.937,527.029,366.796z
		 M518.795,360.921c-0.194-0.125-0.45-0.079-0.589,0.104c-0.133,0.192-0.086,0.455,0.104,0.589c0.196,0.127,0.459,0.071,0.586-0.125
		C519.017,361.303,518.973,361.055,518.795,360.921z M510.559,355.064c-0.186-0.138-0.448-0.099-0.586,0.086
		c0,0.001-0.001,0.001-0.001,0.002c-0.125,0.194-0.079,0.45,0.104,0.589c0.192,0.133,0.455,0.086,0.589-0.105
		c0.13-0.18,0.09-0.431-0.089-0.561C510.57,355.071,510.565,355.067,510.559,355.064z M502.3,393.355
		c-0.225,0.05-0.373,0.266-0.339,0.494c0.039,0.225,0.253,0.375,0.478,0.337c0.227-0.036,0.384-0.247,0.353-0.475
		C502.752,393.478,502.533,393.32,502.3,393.355z M500.636,383.385c-0.225,0.05-0.373,0.266-0.339,0.494
		c0.039,0.225,0.253,0.375,0.478,0.337c0.219-0.031,0.372-0.234,0.341-0.453c-0.001-0.008-0.003-0.016-0.004-0.025
		C501.075,383.511,500.864,383.354,500.636,383.385z M498.97,373.431c-0.219,0.031-0.372,0.234-0.341,0.453
		c0.001,0.008,0.003,0.017,0.004,0.025c0.04,0.225,0.254,0.375,0.479,0.335c0.224-0.039,0.374-0.252,0.336-0.476
		c-0.031-0.219-0.234-0.372-0.453-0.341C498.986,373.428,498.978,373.429,498.97,373.431L498.97,373.431z M497.306,363.46
		c-0.227,0.036-0.384,0.247-0.353,0.475c0.016,0.089,0.058,0.171,0.119,0.236l0.017,0.002c0.096,0.09,0.23,0.127,0.358,0.1
		c0.225-0.038,0.376-0.252,0.338-0.477s-0.252-0.376-0.477-0.338C497.307,363.46,497.306,363.46,497.306,363.46z M495.642,353.489
		c-0.074,0.008-0.144,0.04-0.199,0.091c-0.02,0.088-0.073,0.166-0.148,0.216c-0.01,0.055-0.013,0.112-0.006,0.168
		c0.036,0.227,0.247,0.384,0.475,0.353c0.232-0.04,0.39-0.259,0.356-0.492C496.08,353.601,495.867,353.451,495.642,353.489
		L495.642,353.489z M464.861,385.045c-0.188-0.133-0.446-0.094-0.587,0.088c-0.135,0.186-0.094,0.446,0.092,0.581
		c0.004,0.003,0.008,0.006,0.012,0.008c0.172,0.134,0.421,0.103,0.555-0.069c0.005-0.007,0.01-0.014,0.015-0.021
		c0.139-0.179,0.107-0.437-0.073-0.576C464.871,385.053,464.866,385.049,464.861,385.045L464.861,385.045z M470.718,376.809
		c-0.196-0.127-0.459-0.071-0.586,0.126c-0.121,0.186-0.077,0.434,0.101,0.568c0.192,0.13,0.453,0.084,0.589-0.104
		c0.136-0.182,0.098-0.44-0.084-0.575C470.732,376.818,470.725,376.814,470.718,376.809L470.718,376.809z M488.34,352.124
		c-0.194-0.125-0.45-0.079-0.589,0.105c-0.133,0.192-0.086,0.455,0.105,0.589c0.196,0.127,0.459,0.071,0.586-0.126
		C488.561,352.505,488.517,352.257,488.34,352.124z M522.246,366.168c-0.093-0.102-0.251-0.108-0.353-0.015
		c-0.102,0.093-0.108,0.251-0.015,0.353s0.251,0.108,0.353,0.015c0,0,0,0,0,0C522.328,366.426,522.335,366.271,522.246,366.168
		L522.246,366.168z M518.181,361.817c-0.093-0.102-0.251-0.108-0.353-0.015s-0.108,0.251-0.015,0.353
		c0.093,0.102,0.251,0.108,0.353,0.015v0C518.263,362.075,518.27,361.92,518.181,361.817L518.181,361.817z M514.101,357.448
		c-0.09-0.096-0.24-0.102-0.336-0.013c-0.101,0.077-0.12,0.222-0.043,0.323c0.008,0.011,0.018,0.021,0.028,0.03
		c0.09,0.096,0.24,0.102,0.336,0.013c0.101-0.079,0.119-0.225,0.04-0.326C514.118,357.465,514.11,357.456,514.101,357.448
		L514.101,357.448z M498.564,374.896c-0.135-0.005-0.248,0.101-0.252,0.236s0.101,0.248,0.236,0.252s0.248-0.101,0.252-0.236
		C498.804,375.014,498.699,374.901,498.564,374.896C498.564,374.896,498.564,374.896,498.564,374.896L498.564,374.896z
		 M498.763,368.938c-0.129-0.01-0.242,0.087-0.252,0.217c0,0.006-0.001,0.012-0.001,0.019c-0.005,0.135,0.101,0.248,0.235,0.252
		c0,0,0,0,0,0c0.138,0.007,0.256-0.096,0.269-0.233c0.002-0.138-0.108-0.252-0.246-0.255
		C498.767,368.938,498.765,368.938,498.763,368.938L498.763,368.938z M498.978,362.981c-0.129-0.01-0.242,0.087-0.252,0.217
		c0,0.006-0.001,0.013-0.001,0.019c-0.005,0.135,0.101,0.248,0.236,0.252s0.248-0.101,0.252-0.236S499.113,362.986,498.978,362.981
		C498.978,362.981,498.978,362.981,498.978,362.981z M499.177,357.023c-0.023-0.006-0.047-0.003-0.069,0.007l-0.017-0.002
		c-0.096,0.037-0.162,0.127-0.167,0.231c-0.005,0.135,0.101,0.248,0.235,0.252c0,0,0,0,0,0c0.108-0.003,0.203-0.069,0.243-0.169
		l0.009-0.066c0.01-0.129-0.087-0.242-0.217-0.252C499.19,357.023,499.184,357.023,499.177,357.023L499.177,357.023z
		 M488.966,352.363c-0.09-0.096-0.24-0.102-0.336-0.013c-0.098,0.095-0.104,0.25-0.015,0.353c0.096,0.096,0.249,0.103,0.353,0.015
		c0.098-0.095,0.1-0.251,0.005-0.349C488.97,352.367,488.968,352.365,488.966,352.363L488.966,352.363z M510.519,369.888
		c-0.039-0.124-0.172-0.193-0.296-0.154c-0.007,0.002-0.015,0.005-0.022,0.008c-0.126,0.043-0.193,0.179-0.15,0.305
		c0.001,0.004,0.003,0.009,0.005,0.013c0.055,0.121,0.191,0.183,0.318,0.145C510.501,370.158,510.566,370.016,510.519,369.888
		L510.519,369.888z M508.42,364.288c-0.047-0.122-0.184-0.182-0.305-0.135c-0.005,0.002-0.01,0.004-0.015,0.006
		c-0.125,0.051-0.189,0.19-0.145,0.318c0.055,0.121,0.191,0.183,0.318,0.145c0.131-0.046,0.199-0.188,0.154-0.319
		C508.424,364.298,508.422,364.293,508.42,364.288L508.42,364.288z M506.334,358.707c-0.055-0.121-0.191-0.183-0.318-0.145
		c-0.127,0.048-0.192,0.19-0.145,0.318c0.039,0.124,0.172,0.193,0.296,0.154c0.008-0.002,0.015-0.005,0.022-0.008
		c0.126-0.043,0.193-0.179,0.15-0.305C506.338,358.715,506.336,358.711,506.334,358.707L506.334,358.707z M504.249,353.125
		c-0.055-0.121-0.191-0.183-0.318-0.145c-0.127,0.049-0.192,0.19-0.145,0.318c0.039,0.124,0.172,0.193,0.296,0.154
		c0.008-0.002,0.015-0.005,0.022-0.008C504.231,353.394,504.295,353.253,504.249,353.125L504.249,353.125z M487.573,369.148
		c-0.111-0.059-0.25-0.016-0.309,0.095c-0.005,0.01-0.009,0.019-0.013,0.03c-0.054,0.123,0.001,0.267,0.125,0.322
		s0.267-0.001,0.322-0.125C487.752,369.346,487.696,369.202,487.573,369.148z M490.049,363.724c-0.111-0.059-0.25-0.017-0.309,0.095
		c-0.005,0.01-0.009,0.019-0.013,0.03c-0.059,0.117-0.011,0.26,0.106,0.318c0.001,0,0.001,0.001,0.002,0.001
		c0.127,0.058,0.277,0.004,0.338-0.122c0.056-0.12,0.003-0.263-0.117-0.318C490.054,363.726,490.051,363.725,490.049,363.724
		L490.049,363.724z M492.524,358.3c-0.122-0.06-0.27-0.013-0.336,0.106c-0.06,0.127-0.005,0.279,0.122,0.338
		c0.127,0.06,0.279,0.005,0.338-0.122C492.698,358.498,492.643,358.358,492.524,358.3L492.524,358.3z M495.102,352.992l0.002-0.017
		c-0.026-0.051-0.067-0.093-0.119-0.118c-0.123-0.049-0.264,0.005-0.322,0.125c-0.023,0.04-0.029,0.088-0.018,0.133
		c0.009,0.088,0.062,0.165,0.141,0.205c0.12,0.056,0.262,0.003,0.318-0.117c0.001-0.003,0.002-0.005,0.004-0.008
		C495.147,353.133,495.145,353.052,495.102,352.992L495.102,352.992z M526.573,372.043c-0.077-0.127-0.243-0.168-0.37-0.091
		c-0.003,0.001-0.005,0.003-0.007,0.005c-0.131,0.076-0.176,0.244-0.1,0.376c0.004,0.006,0.007,0.012,0.011,0.018
		c0.077,0.127,0.243,0.168,0.37,0.091c0.002-0.001,0.005-0.003,0.007-0.005C526.616,372.351,526.655,372.176,526.573,372.043
		L526.573,372.043z M522.903,366.309c-0.077-0.127-0.243-0.168-0.37-0.091c-0.003,0.001-0.005,0.003-0.007,0.005
		c-0.133,0.084-0.173,0.261-0.088,0.394s0.261,0.173,0.394,0.088c0.128-0.081,0.165-0.25,0.084-0.378
		C522.911,366.321,522.907,366.315,522.903,366.309L522.903,366.309z M519.248,360.578c-0.084-0.133-0.26-0.174-0.393-0.09
		c-0.133,0.084-0.174,0.26-0.09,0.393c0,0.001,0.001,0.001,0.001,0.002c-0.002,0.017,0.014,0.019,0.029,0.038
		c0.096,0.098,0.246,0.119,0.365,0.051C519.291,360.886,519.33,360.712,519.248,360.578L519.248,360.578z M515.577,354.845
		l-0.057-0.076c-0.017-0.002-0.031-0.021-0.064-0.026c-0.086-0.047-0.191-0.042-0.272,0.013c-0.133,0.084-0.172,0.261-0.088,0.394
		c0.084,0.133,0.261,0.172,0.394,0.088C515.622,355.154,515.662,354.978,515.577,354.845L515.577,354.845z M498.196,376.942
		c-0.152-0.02-0.295,0.076-0.335,0.224c-0.033,0.149,0.059,0.297,0.208,0.333c0.138,0.041,0.284-0.037,0.326-0.176
		c0.003-0.01,0.006-0.021,0.007-0.032c0.04-0.153-0.051-0.309-0.204-0.349C498.197,376.943,498.197,376.943,498.196,376.942
		L498.196,376.942z M499.657,370.296c-0.152-0.02-0.295,0.076-0.335,0.224c-0.033,0.149,0.059,0.297,0.207,0.333
		c0.153,0.04,0.309-0.051,0.349-0.203c0-0.001,0-0.001,0.001-0.002C499.906,370.491,499.81,370.339,499.657,370.296L499.657,370.296
		z M501.118,363.649c-0.152-0.02-0.295,0.076-0.335,0.224c-0.033,0.149,0.059,0.297,0.207,0.333c0.141,0.04,0.287-0.041,0.327-0.182
		c0.004-0.014,0.007-0.028,0.008-0.042C501.359,363.833,501.267,363.685,501.118,363.649L501.118,363.649z M502.579,357.003
		c-0.154-0.026-0.301,0.072-0.335,0.224c-0.034,0.149,0.059,0.297,0.207,0.333c0.14,0.04,0.287-0.041,0.327-0.182
		c0.004-0.014,0.007-0.028,0.008-0.042C502.82,357.187,502.728,357.039,502.579,357.003z M534.175,359.516
		c-0.124-0.093-0.299-0.068-0.392,0.056c-0.002,0.002-0.004,0.005-0.005,0.008c-0.084,0.129-0.057,0.301,0.063,0.398
		c0.127,0.089,0.303,0.059,0.392-0.068c0.003-0.004,0.005-0.008,0.008-0.012C534.327,359.773,534.298,359.603,534.175,359.516
		L534.175,359.516z M528.593,355.615c-0.128-0.089-0.304-0.061-0.398,0.063c-0.089,0.127-0.059,0.303,0.068,0.392
		c0.004,0.003,0.008,0.005,0.012,0.008c0.124,0.086,0.294,0.057,0.381-0.066C528.746,355.884,528.718,355.709,528.593,355.615
		L528.593,355.615z M512.465,373.912c-0.022-0.151-0.163-0.255-0.314-0.232c-0.003,0-0.006,0.001-0.01,0.002l-0.016-0.002
		c-0.145,0.036-0.238,0.178-0.214,0.325c0.022,0.151,0.163,0.255,0.314,0.232c0.003,0,0.006-0.001,0.01-0.002
		c0.039-0.011,0.076-0.029,0.109-0.053C512.437,374.128,512.486,374.019,512.465,373.912L512.465,373.912z M510.94,366.97
		c-0.153,0.037-0.253,0.184-0.233,0.34c0.041,0.15,0.189,0.244,0.342,0.216c0.148-0.029,0.244-0.173,0.215-0.322
		c0-0.001-0.001-0.003-0.001-0.004C511.237,367.049,511.093,366.946,510.94,366.97z M509.752,360.279
		c-0.153,0.025-0.256,0.17-0.231,0.323c0.026,0.153,0.17,0.256,0.323,0.231c0.153-0.025,0.256-0.17,0.231-0.323c0,0,0,0,0,0
		c-0.023-0.151-0.163-0.255-0.314-0.232C509.758,360.278,509.755,360.278,509.752,360.279L509.752,360.279z M508.548,353.585
		c-0.148,0.03-0.244,0.174-0.215,0.322c0,0.001,0,0.002,0.001,0.004c0.021,0.143,0.154,0.241,0.297,0.22
		c0.01-0.001,0.019-0.003,0.028-0.006c0.153-0.026,0.256-0.17,0.231-0.323c-0.034-0.154-0.186-0.251-0.34-0.217
		C508.549,353.584,508.549,353.584,508.548,353.585L508.548,353.585z M486.856,368.338c-0.121-0.085-0.288-0.055-0.373,0.066
		c-0.004,0.005-0.007,0.011-0.01,0.016c-0.086,0.124-0.057,0.293,0.066,0.381c0.124,0.093,0.299,0.068,0.392-0.056
		c0.002-0.003,0.004-0.005,0.006-0.008C487.023,368.606,486.988,368.428,486.856,368.338L486.856,368.338z M490.757,362.757
		c-0.133-0.087-0.311-0.051-0.4,0.08c-0.085,0.121-0.055,0.288,0.066,0.373c0.005,0.004,0.011,0.007,0.016,0.01
		c0.114,0.089,0.278,0.068,0.367-0.046c0.005-0.006,0.01-0.013,0.014-0.02c0.092-0.127,0.065-0.304-0.062-0.397
		C490.758,362.757,490.758,362.757,490.757,362.757L490.757,362.757z M494.658,357.175c-0.127-0.089-0.303-0.059-0.392,0.068
		c-0.003,0.004-0.005,0.008-0.008,0.012c-0.086,0.129-0.051,0.304,0.078,0.39c0.127,0.084,0.298,0.053,0.385-0.072
		C494.806,357.444,494.778,357.272,494.658,357.175L494.658,357.175z M536.523,355.748c-0.217-0.153-0.517-0.104-0.675,0.11
		c-0.155,0.22-0.103,0.524,0.116,0.679c0.212,0.15,0.505,0.107,0.665-0.098C536.783,356.217,536.736,355.914,536.523,355.748
		L536.523,355.748z M522.542,401.906c-0.265,0.041-0.449,0.286-0.415,0.551c0.044,0.262,0.291,0.44,0.554,0.398
		c0.263-0.044,0.445-0.286,0.414-0.551C523.051,402.042,522.804,401.864,522.542,401.906L522.542,401.906z M520.722,390.375
		c-0.263,0.043-0.441,0.291-0.398,0.554c0.043,0.263,0.291,0.441,0.554,0.398c0.263-0.043,0.441-0.291,0.398-0.554
		C521.231,390.511,520.984,390.333,520.722,390.375L520.722,390.375z M518.918,378.847c-0.263,0.033-0.449,0.273-0.416,0.536
		s0.273,0.449,0.536,0.416c0.007-0.001,0.013-0.002,0.02-0.003c0.265-0.041,0.449-0.286,0.415-0.551
		C519.428,378.982,519.181,378.805,518.918,378.847L518.918,378.847z M517.098,367.315c-0.26,0.04-0.439,0.283-0.4,0.544
		c0,0.003,0.001,0.007,0.002,0.01c0.043,0.263,0.291,0.441,0.554,0.398c0.263-0.043,0.441-0.291,0.398-0.554l0,0
		c-0.04-0.26-0.283-0.439-0.544-0.4C517.105,367.314,517.102,367.315,517.098,367.315L517.098,367.315z M515.295,355.787
		c-0.262,0.041-0.44,0.287-0.399,0.549c0.041,0.257,0.28,0.435,0.538,0.4c0.265-0.041,0.449-0.286,0.415-0.551
		C515.805,355.922,515.557,355.745,515.295,355.787L515.295,355.787z M475.137,390.458c-0.22-0.155-0.524-0.103-0.679,0.116
		c-0.15,0.212-0.107,0.505,0.098,0.665c0.222,0.153,0.526,0.106,0.691-0.107C475.396,390.915,475.348,390.618,475.137,390.458z
		 M482.006,381.026c-0.216-0.157-0.518-0.11-0.675,0.106c-0.157,0.216-0.11,0.518,0.106,0.675c0.001,0.001,0.003,0.002,0.004,0.003
		c0.216,0.157,0.518,0.11,0.675-0.106c0.157-0.216,0.11-0.518-0.106-0.675C482.009,381.028,482.007,381.027,482.006,381.026z
		 M488.875,371.594c-0.206-0.161-0.504-0.124-0.665,0.083c-0.003,0.003-0.005,0.007-0.008,0.01
		c-0.153,0.222-0.106,0.526,0.107,0.691c0.217,0.152,0.517,0.104,0.675-0.11c0.157-0.21,0.114-0.508-0.096-0.665
		C488.884,371.6,488.879,371.597,488.875,371.594z M495.744,362.162c-0.206-0.161-0.504-0.124-0.665,0.083
		c-0.003,0.003-0.005,0.007-0.008,0.01c-0.151,0.223-0.104,0.524,0.107,0.691c0.217,0.153,0.517,0.104,0.675-0.11
		c0.159-0.2,0.125-0.491-0.075-0.65C495.767,362.178,495.756,362.169,495.744,362.162z M502.631,352.715
		c-0.217-0.152-0.517-0.104-0.675,0.11c-0.156,0.22-0.104,0.524,0.116,0.68c0.213,0.151,0.506,0.108,0.666-0.098
		C502.892,353.184,502.845,352.881,502.631,352.715L502.631,352.715z M531.984,368.75c-0.141-0.23-0.442-0.301-0.671-0.16
		c-0.23,0.141-0.301,0.442-0.16,0.671c0.141,0.23,0.441,0.301,0.671,0.16C532.049,369.277,532.12,368.98,531.984,368.75
		L531.984,368.75z M525.904,358.794c-0.137-0.229-0.434-0.303-0.663-0.166c-0.003,0.002-0.006,0.003-0.008,0.005
		c-0.226,0.144-0.296,0.441-0.16,0.671c0.147,0.226,0.449,0.29,0.675,0.143C525.966,359.306,526.034,359.019,525.904,358.794
		L525.904,358.794z M499.787,395.747c-0.255-0.061-0.511,0.096-0.572,0.351c-0.001,0.003-0.001,0.006-0.002,0.009
		c-0.065,0.256,0.087,0.517,0.341,0.588c0.26,0.051,0.515-0.104,0.591-0.358c0.064-0.262-0.095-0.526-0.357-0.59
		C499.788,395.747,499.788,395.747,499.787,395.747L499.787,395.747z M502.524,384.407c-0.248-0.066-0.501,0.082-0.567,0.33
		c-0.003,0.01-0.005,0.02-0.007,0.031c-0.063,0.253,0.09,0.508,0.343,0.572c0,0,0,0,0.001,0c0.262,0.064,0.526-0.095,0.59-0.357
		c0,0,0-0.001,0-0.001c0.066-0.248-0.082-0.501-0.329-0.567C502.544,384.411,502.534,384.409,502.524,384.407L502.524,384.407z
		 M505.262,373.05c-0.264-0.055-0.522,0.113-0.577,0.377c-0.054,0.257,0.106,0.511,0.361,0.574c0.255,0.061,0.511-0.096,0.572-0.351
		c0.001-0.003,0.001-0.006,0.002-0.009C505.685,373.379,505.525,373.115,505.262,373.05
		C505.263,373.05,505.262,373.05,505.262,373.05L505.262,373.05z M507.998,361.71c-0.258-0.057-0.514,0.103-0.574,0.36
		c-0.059,0.259,0.104,0.516,0.362,0.574c0.251,0.057,0.503-0.095,0.57-0.344C508.421,362.039,508.261,361.775,507.998,361.71
		C507.999,361.71,507.999,361.71,507.998,361.71z M493.656,351.71c-0.141-0.23-0.441-0.302-0.671-0.161
		c-0.23,0.141-0.302,0.441-0.161,0.671c0.138,0.224,0.43,0.294,0.655,0.158c0.233-0.134,0.314-0.431,0.18-0.665
		C493.658,351.712,493.657,351.711,493.656,351.71z M535.71,361.132c-0.137-0.215-0.423-0.277-0.637-0.14
		c-0.007,0.005-0.015,0.01-0.022,0.015c-0.221,0.15-0.284,0.447-0.144,0.673c0.159,0.209,0.451,0.264,0.676,0.127
		c0.221-0.147,0.281-0.446,0.133-0.667C535.714,361.137,535.712,361.134,535.71,361.132z M506.842,399.514
		c-0.263-0.055-0.521,0.114-0.576,0.377s0.114,0.521,0.377,0.576c0.263,0.055,0.52-0.113,0.575-0.376
		C507.274,399.827,507.105,399.569,506.842,399.514C506.842,399.514,506.842,399.514,506.842,399.514z M509.097,388.107
		c-0.266-0.041-0.519,0.131-0.579,0.393c-0.041,0.257,0.125,0.502,0.379,0.56c0.263,0.055,0.521-0.114,0.576-0.377
		C509.522,388.421,509.356,388.168,509.097,388.107L509.097,388.107z M511.333,376.714c-0.259-0.05-0.51,0.12-0.56,0.379
		c-0.05,0.259,0.12,0.51,0.379,0.56c0.263,0.055,0.521-0.114,0.576-0.377C511.768,377.014,511.594,376.766,511.333,376.714
		L511.333,376.714z M513.588,365.308c-0.255-0.052-0.505,0.112-0.558,0.368c-0.001,0.004-0.002,0.008-0.002,0.011
		c-0.047,0.259,0.121,0.508,0.379,0.56c0.249,0.057,0.497-0.1,0.554-0.349c0.002-0.01,0.004-0.02,0.006-0.03
		c0.052-0.256-0.112-0.505-0.368-0.558C513.596,365.309,513.592,365.308,513.588,365.308z M485.726,359.642
		c-0.137-0.215-0.423-0.277-0.637-0.14c-0.007,0.005-0.015,0.01-0.022,0.015c-0.219,0.143-0.283,0.436-0.142,0.657
		c0.15,0.221,0.447,0.284,0.673,0.144c0.221-0.147,0.281-0.446,0.133-0.667C485.73,359.648,485.728,359.645,485.726,359.642z
		 M495.382,353.166c-0.063-0.096-0.166-0.16-0.28-0.174l0.002-0.017c-0.131-0.031-0.268-0.008-0.381,0.066
		c-0.033,0.015-0.061,0.041-0.078,0.074c-0.188,0.184-0.191,0.485-0.008,0.673c0.164,0.168,0.426,0.191,0.617,0.054
		c0.019-0.014,0.038-0.029,0.04-0.045c0.075-0.05,0.129-0.128,0.148-0.216C495.49,353.44,495.467,353.287,495.382,353.166z
		 M528.552,381.82c-0.262,0.055-0.433,0.309-0.384,0.573c0.058,0.259,0.315,0.423,0.575,0.367c0.258-0.047,0.429-0.294,0.382-0.552
		c0-0.001,0-0.003-0.001-0.004C529.066,381.944,528.814,381.775,528.552,381.82z M526.275,370.412
		c-0.26,0.058-0.429,0.31-0.384,0.573c0.049,0.26,0.301,0.431,0.561,0.381c0.26-0.05,0.431-0.301,0.381-0.561
		c-0.001-0.004-0.002-0.008-0.002-0.012c-0.047-0.258-0.294-0.429-0.552-0.382C526.278,370.411,526.276,370.411,526.275,370.412
		L526.275,370.412z M523.979,359.018c-0.262,0.055-0.433,0.309-0.384,0.573c0.061,0.262,0.323,0.425,0.585,0.364
		c0.25-0.058,0.412-0.3,0.371-0.553C524.497,359.139,524.243,358.969,523.979,359.018L523.979,359.018z M487.472,385.03
		c-0.215-0.145-0.507-0.088-0.651,0.127c-0.004,0.006-0.008,0.012-0.011,0.018c-0.146,0.218-0.089,0.513,0.128,0.66
		c0.222,0.15,0.524,0.094,0.677-0.126c0.149-0.221,0.091-0.521-0.13-0.671C487.481,385.035,487.476,385.032,487.472,385.03
		L487.472,385.03z M493.918,375.353c-0.215-0.145-0.507-0.088-0.651,0.127c-0.004,0.006-0.008,0.012-0.011,0.018
		c-0.146,0.218-0.089,0.513,0.128,0.66c0.222,0.15,0.524,0.094,0.677-0.126c0.149-0.221,0.091-0.521-0.13-0.671
		C493.927,375.358,493.922,375.355,493.918,375.353z M500.364,365.676c-0.223-0.141-0.519-0.076-0.663,0.145
		c-0.146,0.218-0.089,0.513,0.128,0.66c0.222,0.15,0.524,0.094,0.677-0.126c0.149-0.221,0.091-0.521-0.13-0.671
		C500.373,365.682,500.369,365.679,500.364,365.676z M506.81,355.999c-0.225-0.132-0.514-0.069-0.663,0.145
		c-0.146,0.218-0.089,0.513,0.128,0.66c0.223,0.147,0.522,0.091,0.677-0.126c0.149-0.225,0.087-0.527-0.138-0.676
		C506.814,356.001,506.812,356,506.81,355.999z M489.333,350.08c-0.077-0.188-0.291-0.278-0.479-0.202s-0.278,0.291-0.202,0.479
		c0.077,0.188,0.291,0.278,0.479,0.202l0,0C489.316,350.48,489.406,350.268,489.333,350.08z M534.085,355.766
		c-0.071-0.182-0.276-0.272-0.459-0.201c-0.001,0.001-0.003,0.001-0.004,0.002c-0.191,0.069-0.29,0.28-0.221,0.471
		c0.069,0.191,0.28,0.29,0.471,0.221c0.191-0.069,0.29-0.28,0.221-0.471C534.091,355.78,534.088,355.773,534.085,355.766z
		 M506.781,379.551c-0.171-0.087-0.381-0.018-0.467,0.153c-0.006,0.011-0.011,0.022-0.015,0.034
		c-0.08,0.184,0.004,0.398,0.189,0.478c0.184,0.08,0.398-0.004,0.478-0.189C507.045,379.845,506.962,379.633,506.781,379.551z
		 M510.23,371.489c-0.18-0.083-0.394-0.005-0.477,0.175c-0.002,0.004-0.004,0.008-0.005,0.012c-0.082,0.185,0.002,0.401,0.187,0.482
		c0.185,0.082,0.401-0.002,0.482-0.187C510.499,371.786,510.415,371.57,510.23,371.489
		C510.23,371.489,510.23,371.489,510.23,371.489z M513.68,363.426c-0.185-0.082-0.401,0.002-0.482,0.187
		c-0.082,0.185,0.002,0.401,0.187,0.482c0.185,0.082,0.401-0.002,0.482-0.187C513.944,363.724,513.862,363.511,513.68,363.426
		L513.68,363.426z M517.129,355.364c-0.19-0.074-0.405,0.016-0.485,0.204c-0.073,0.185,0.018,0.394,0.202,0.467
		c0.001,0,0.002,0.001,0.003,0.001c0.177,0.078,0.383-0.001,0.461-0.178c0.002-0.004,0.003-0.007,0.005-0.011
		c0.083-0.18,0.005-0.394-0.175-0.477C517.137,355.367,517.133,355.366,517.129,355.364L517.129,355.364z M525.203,378.769
		c-0.199-0.005-0.365,0.152-0.37,0.351c0,0.001,0,0.002,0,0.003c0.005,0.196,0.159,0.357,0.355,0.37
		c0.199,0.002,0.363-0.156,0.37-0.355c0.011-0.193-0.136-0.358-0.328-0.37C525.22,378.769,525.211,378.769,525.203,378.769
		L525.203,378.769z M525.299,370.006c-0.193-0.003-0.351,0.151-0.354,0.344c0,0.004,0,0.009,0,0.013
		c-0.005,0.199,0.152,0.365,0.351,0.37c0.001,0,0.002,0,0.003,0c0.202-0.007,0.364-0.169,0.373-0.371
		c-0.003-0.2-0.168-0.359-0.368-0.356C525.303,370.006,525.301,370.006,525.299,370.006z M525.415,361.229
		c-0.202,0.007-0.365,0.169-0.373,0.371c-0.004,0.191,0.147,0.35,0.338,0.354c0.006,0,0.012,0,0.019,0
		c0.193,0.011,0.358-0.136,0.37-0.328c0-0.009,0.001-0.017,0.001-0.026c0.005-0.199-0.152-0.365-0.351-0.37
		C525.417,361.229,525.416,361.229,525.415,361.229L525.415,361.229z M494.512,365.931c-0.129-0.144-0.35-0.157-0.495-0.029
		c-0.003,0.003-0.007,0.006-0.01,0.009c-0.146,0.132-0.157,0.357-0.025,0.503c0.006,0.007,0.013,0.014,0.02,0.02
		c0.139,0.141,0.366,0.142,0.507,0.003S494.651,366.072,494.512,365.931z M500.789,359.799c-0.147-0.136-0.374-0.138-0.524-0.005
		c-0.141,0.148-0.134,0.383,0.014,0.524c0.141,0.134,0.361,0.136,0.505,0.005C500.92,360.176,500.922,359.949,500.789,359.799z
		 M507.063,353.684c-0.134-0.146-0.36-0.156-0.506-0.022c-0.006,0.006-0.012,0.011-0.018,0.017
		c-0.136,0.141-0.137,0.364-0.003,0.507c0.144,0.141,0.374,0.138,0.515-0.005C507.186,354.044,507.191,353.826,507.063,353.684
		L507.063,353.684z M527.604,359.587c-0.108-0.025-0.216,0.044-0.241,0.152c-0.025,0.108,0.044,0.216,0.152,0.241
		c0.006,0.001,0.011,0.002,0.017,0.003c0.11,0.014,0.21-0.062,0.227-0.172C527.774,359.708,527.706,359.61,527.604,359.587
		L527.604,359.587z M528.427,354.865c-0.105-0.019-0.206,0.051-0.225,0.156c-0.001,0.005-0.002,0.01-0.002,0.015
		c-0.025,0.096,0.032,0.194,0.128,0.219c0.009,0.002,0.018,0.004,0.027,0.005c0.103,0.02,0.203-0.047,0.223-0.15
		c0-0.002,0.001-0.004,0.001-0.005C528.595,354.998,528.53,354.896,528.427,354.865L528.427,354.865z M522.051,367.088
		c-0.141-0.093-0.331-0.055-0.424,0.086c-0.005,0.007-0.009,0.015-0.014,0.023c-0.097,0.133-0.068,0.32,0.065,0.418
		c0.009,0.006,0.018,0.012,0.027,0.018c0.15,0.1,0.352,0.06,0.452-0.09c0,0,0,0,0,0c0.098-0.146,0.059-0.344-0.087-0.443
		C522.064,367.095,522.057,367.091,522.051,367.088L522.051,367.088z M526.278,360.367c-0.155-0.095-0.357-0.047-0.454,0.106
		c-0.098,0.146-0.059,0.344,0.087,0.443c0.006,0.004,0.013,0.008,0.019,0.012c0.141,0.093,0.331,0.055,0.424-0.086
		c0.005-0.007,0.009-0.015,0.014-0.023c0.101-0.143,0.068-0.341-0.075-0.442C526.288,360.374,526.283,360.371,526.278,360.367
		L526.278,360.367z"/>
	
		<linearGradient id="sweater_1_" gradientUnits="userSpaceOnUse" x1="525.8734" y1="478.6118" x2="480.2599" y2="356.5958" gradientTransform="matrix(1 0 0 -1 0 722)">
		<stop  offset="0" style="stop-color:#23286B"/>
		<stop  offset="0.361" style="stop-color:#1E2361"/>
		<stop  offset="1" style="stop-color:#151A4F"/>
	</linearGradient>
	<path id="sweater" style="fill:url(#sweater_1_);" d="M493.487,216.466c-0.007-0.001-0.013-0.004-0.018-0.009
		c-6.629,3.176-12.6,7.572-17.603,12.957l-14.413,104.521c37.183,27.235,71.256,20.002,77.941,18.205
		c0.782-0.216,1.186-0.35,1.186-0.35C548.209,255.419,494.691,217.311,493.487,216.466z"/>
	<path id="L_sleeve" style="fill:#23286B;" d="M475.869,229.418c0,0-4.898,26.465-18.301,45.523
		c-8.116,11.54-18.348,14.155-37.069,6.767c-16.944-6.687-23.518-10.785-23.518-10.785l-12.853,48.22c0,0,19.213,29.46,44.83,21.775
		c21.054-6.316,33.254,9.333,44.19,8.326c24.336-2.241,29.669-8.135,37.145-42.909s-4.483-73.97-16.823-89.873l0,0"/>
	
		<linearGradient id="neck_1_" gradientUnits="userSpaceOnUse" x1="490.301" y1="503.1981" x2="475.9197" y2="507.1654" gradientTransform="matrix(1 0 0 -1 0 722)">
		<stop  offset="0" style="stop-color:#FFBEB6"/>
		<stop  offset="1" style="stop-color:#F29B94"/>
	</linearGradient>
	<path id="neck" style="fill:url(#neck_1_);" d="M471.546,213.206c0,0,5.044,11.889,4.323,16.213
		c5.212-5.145,11.141-9.509,17.601-12.957c0,0-8.414-11.362-8.414-13.704L471.546,213.206z"/>
	<path id="face" style="fill:#FFBEB6;" d="M463.229,214.362c-7.105-2.025-11.25-8.393-12.691-8.03
		c-1.448,0.354-4.714,0.377-5.255-1.119c-0.525-1.493,1.947-7.077,0.734-12.759c-0.121-0.527-0.213-1.032-0.296-1.544
		c-0.004-0.025-0.01-0.034,0.002-0.057l-0.042-0.276c-0.047-0.342-0.116-0.933-0.162-1.708c4.114,1.493,7.778,1.62,9.402,0.53
		c4.601-3.08,5.542,0.067,10.803,3.422c5.276,3.357,9.298,0.659,15.513-1.613c6.222-2.262,7.189,4.136,4.988,6.635
		c-2.195,2.508-3.959,3.731-2.173,6.144c0.288,0.525,0.682,0.984,1.157,1.347l-0.589,0.612c-0.186,0.194-0.381,0.378-0.586,0.553
		l-2.844,2.433C476.063,213.273,469.889,216.27,463.229,214.362z"/>
	<path id="cap_bottom" style="fill:#E94A47;" d="M527.3,194.899l-82.938-10.313l0,0l0.381-3.065l0,0l80.995,10.071
		c1.073,0.133,1.835,1.111,1.701,2.184c0,0,0,0,0,0L527.3,194.899L527.3,194.899z"/>
	
		<linearGradient id="cap_top_1_" gradientUnits="userSpaceOnUse" x1="472.0323" y1="542.933" x2="492.1502" y2="491.5509" gradientTransform="matrix(1 0 0 -1 -2.560615e-05 721.9999)">
		<stop  offset="0" style="stop-color:#E94A47"/>
		<stop  offset="0.8467" style="stop-color:#A74A47"/>
	</linearGradient>
	<path id="cap_top" style="fill:url(#cap_top_1_);" d="M498.564,188.197l-53.826-6.693l0,0l0.739-5.943
		c1.328-10.684,11.066-18.268,21.75-16.939h0l14.331,1.782c11.129,1.384,19.028,11.527,17.645,22.656c0,0,0,0,0,0L498.564,188.197
		L498.564,188.197z"/>
	<path id="hair" style="fill:#23286B;" d="M485.209,205.335c0,0,4.115,1.447,9.196-3.883s4.541-10.195,4.541-10.195
		s-51.106-6.422-52.845-6.546s-1.108-0.275-7.108-5.673s-9.727,2.5-5.754,8.382s15.209,4.604,19.881,2.753s6.549-2.396,10.187,1.52
		s10.833,4.222,16.355,0.277s10.005,1.969,5.575,6.445S485.209,205.335,485.209,205.335z"/>
	<path id="eye" style="fill:#1C2868;" d="M450.644,195.793c-1.319,1.984-3.997,2.523-5.98,1.204
		c-0.718-0.478-1.277-1.16-1.604-1.958c-0.253-0.606,0.646-1.114,0.903-0.5c0.623,1.704,2.509,2.58,4.212,1.957
		c0.642-0.235,1.195-0.664,1.582-1.229C450.138,194.728,451.029,195.25,450.644,195.793z"/>
</g>
</svg>
