<?xml version="1.0" encoding="UTF-8"?><svg xmlns="http://www.w3.org/2000/svg" width="139.49049" height="189.21512" viewBox="0 0 139.49049 189.21512" x="0px" y="0px" version="1.1" xmlns:xlink="http://www.w3.org/1999/xlink">
  
  <title>astranaft cat3</title>
  <g id="Слой_2" data-name="Слой 2">
    <g id="Capa_1" data-name="Capa 1">
      <g>
        <path d="M138.06258,73.26938c-4.9-15.2-16.5-34-34.8-31.7a4.5179,4.5179,0,0,0-3.4,6.5,4.06115,4.06115,0,0,0,2.4,2.4c16.6,6.9,31.8,28.7,16.6,44.8-4.3,4.6-15.6,4.9-16.7,11.9-1.2,7.7,7.7,8.4,12.8,6.2C131.16261,106.6694,143.86263,91.76938,138.06258,73.26938Z" style="
        fill: #57455d;
      "/>
        <path d="M105.16261,79.0694a12.63583,12.63583,0,0,0-5.7-2.8c-.4-.1-.8-.4-1.2-.5-6.9-2.4-13.8,1.9-17.4,7.7-5,8-3.4,18.5-2.8,27.4.4,5.8.8,11.5,1.5,17.3.5,4.5.7,9.6,2.4,13.6a4.03336,4.03336,0,0,0,3.5,2c7.3.1,18.7-3.8,22.9-10.2,5-7.8,5.9-19.7,5.8-28.6S112.16261,85.0694,105.16261,79.0694Z" style="
        fill: #ef86b0;
      "/>
        <path d="M99.8626,30.0694c-7.8-17.4-29.7-28.5-47.9-29.9-19.7-1.6-39.5,8.2-47.9,26.6-9.2,20-2.2,42.6,15.2,55.4a3.35326,3.35326,0,0,0,3.6,2.6c13.5-.4,26.8-.8,40.3-1.3,8.8-.3,17.9-.9,25.9-5C106.3626,69.76938,106.8626,45.6694,99.8626,30.0694Z" style="
        fill: #b4c7e7;
      "/>
        <path d="M129.06261,138.26938l-17.3,15.9c-3.6,3.4-9.7,11.1-15.5,12.8a110.68684,110.68684,0,0,0-3.1-76.7c-4.7-11.2-10.8-17-23.3-17.4a243.26152,243.26152,0,0,0-48.1,3.8c-2.7.4-3.4,2.8-2.7,4.9-.1.1-.1.4-.3.5a315.08579,315.08579,0,0,0-16.6,69.6c-1.1,9-4,21.3,2.2,29.1,5.7,7.3,16.3,8.1,24.7,8.4,12.3.4,24.4-1.9,36.5-3.9,12.1-1.9,24.5-3.1,36.4-6.2,18.5-4.9,31.4-19,33.9-38C136.4626,137.46939,131.26259,136.26938,129.06261,138.26938Z" style="
        fill: #fff;
      "/>
        <path d="M80.3626,32.76938c-.7-3.4-5.9-4-7.4-.9-2.2,4.3-4.3,11.6-7.6,15.2-1.9,2.2-2.7,1.8-5.9,1.6h-7.4c-1.1,0-6.5.5-7.4,0-1.2-.8-2.2-4.2-2.8-5.5a79.08648,79.08648,0,0,0-8-13.4c-1.9-2.7-6.5-2.7-7.4.9a117.86724,117.86724,0,0,0-3.5,41.8,4.35175,4.35175,0,0,0,4,3.9,10.47382,10.47382,0,0,0,1.1.8c7.4,3.8,16.2,1.9,24.1.9a185.24864,185.24864,0,0,0,27.4-5.7,4.41026,4.41026,0,0,0,3-3.9A133.35232,133.35232,0,0,0,80.3626,32.76938Z" style="
        fill: #56597a;
      "/>
        <path d="M18.4626,73.46939a3.83943,3.83943,0,0,0-2.6,1.9c-.4.3-.9.5-1.3.8a4.0292,4.0292,0,0,0-.8,6.3c3.6,4.5,9.7,4.5,15,5,8.8.8,17.5,1.3,26.3,1.3a257.29172,257.29172,0,0,0,26.3-1.3c4.5-.4,11.6-.5,13.4-5.8C100.4626,64.5694,27.06261,71.26938,18.4626,73.46939Z" style="
        fill: #ef86b0;
      "/>
        <path d="M65.3626,109.96939c-4.2-8.6-16.2-8.9-24.4-8.6-4.5.1-10.2.1-13.9,3.1-2.6,2-3.5,5-3.8,8.1a4.37354,4.37354,0,0,0,0,4.9,4.08159,4.08159,0,0,0,5.4,3.1c3.8,2.2,7.1,5,11.6,6.2a57.3992,57.3992,0,0,0,16,1.8c3.9,0,7.6-.5,9.3-4.5S67.26259,113.86938,65.3626,109.96939Z" style="
        fill: #f7d06f;
      "/>
        <path d="M32.76259,55.76938c-5.3,0-5.3,8.1,0,8.1C37.9626,63.86938,37.9626,55.76938,32.76259,55.76938Z" style="
        fill: #57455d;
      "/>
        <path d="M70.66261,55.76938c-5.3,0-5.3,8.1,0,8.1C75.76259,63.86938,75.76259,55.76938,70.66261,55.76938Z" style="
        fill: #57455d;
      "/>
        <path d="M61.4626,61.6694c-2.6-2.2-5.8-6.2-9.6-5.3-3.2.8-5.7,4.5-7.6,6.9a3.96157,3.96157,0,0,0,1.5,5.5c2,1.2,4.2.3,5.5-1.5.5-.7,1.2-1.3,1.8-2l.1-.1c.1.1.3.3.4.3.7.7,1.5,1.2,2.2,1.9a4.07437,4.07437,0,0,0,5.7,0A4.27628,4.27628,0,0,0,61.4626,61.6694Z" style="
        fill: #57455d;
      "/>
        <path d="M79.76259,30.96939c-.3-2.2-3.1-3.4-5-2.8-2.3.7-3.1,2.8-2.8,5a29.22928,29.22928,0,0,1,.1,6.6,4,4,0,0,0,8,0A37.07111,37.07111,0,0,0,79.76259,30.96939Z" style="
        fill: #57455d;
      "/>
        <path d="M33.66261,30.5694a3.95713,3.95713,0,0,0-5-2.8,3.99913,3.99913,0,0,0-2.8,5,21.45093,21.45093,0,0,1,.7,5.8,4.078,4.078,0,0,0,4,4,4.01091,4.01091,0,0,0,4-4A24.02822,24.02822,0,0,0,33.66261,30.5694Z" style="
        fill: #57455d;
      "/>
        <path d="M25.76259,60.36938a16.06564,16.06564,0,0,1-7.6-4.3c-3.6-3.8-9.3,2-5.7,5.7a32.63941,32.63941,0,0,0,4,3.4c-.1,0-.4.1-.5.1a4.05216,4.05216,0,0,0,2.2,7.8,26.81411,26.81411,0,0,1,2.7-.7,7.89611,7.89611,0,0,0,1.3-.3h.1a1.70174,1.70174,0,0,0,.7-.1c2.2-.3,4.2-1.8,4-4,0-.1,0-.4-.1-.5C29.26259,65.6694,29.3626,61.1694,25.76259,60.36938Z" style="
        fill: #57455d;
      "/>
        <path d="M89.76259,54.96939a66.30086,66.30086,0,0,1-10.4,5,4.21565,4.21565,0,0,0-2.4,5.7,4.15154,4.15154,0,0,0,1.9,4.6,21.52111,21.52111,0,0,0,11.1,3.9c2.2.3,4-2,4-4a4.078,4.078,0,0,0-4-4,19.96782,19.96782,0,0,1-2.6-.5,70.62806,70.62806,0,0,0,6.7-3.5C98.26259,59.26938,94.26259,52.26938,89.76259,54.96939Z" style="
        fill: #57455d;
      "/>
        <path d="M99.66261,162.76938c-2-.4-4.6.7-5,2.8-.3,1.5-.5,3-.9,4.5-.4,2,.5,4.5,2.8,5,2,.4,4.6-.7,5-2.8.3-1.5.5-3,.9-4.5C102.8626,165.6694,101.8626,163.26938,99.66261,162.76938Z" style="
        fill: #57455d;
      "/>
        <path d="M66.8626,109.86938a50.01839,50.01839,0,0,0-1.1,12.8c.4,5.1,8.5,5.3,8.1,0a35.19082,35.19082,0,0,1,.8-10.7C75.8626,106.86938,68.06261,104.76938,66.8626,109.86938Z" style="
        fill: #57455d;
      "/>
        <path d="M88.06261,115.36938c-.5-5.1-8.6-5.1-8.1,0a207.0955,207.0955,0,0,1-1.3,58.3c-.8,5.1,6.9,7.3,7.8,2.2A218.84318,218.84318,0,0,0,88.06261,115.36938Z" style="
        fill: #57455d;
      "/>
        <path d="M58.3626,113.0694a154.92543,154.92543,0,0,0-23.6-2.6c-5.3-.1-5.3,8,0,8.1a138.68787,138.68787,0,0,1,21.4,2.3C61.3626,121.86938,63.4626,114.0694,58.3626,113.0694Z" style="
        fill: #57455d;
      "/>
      </g>
    </g>
  </g>
</svg>